<svg xmlns="http://www.w3.org/2000/svg" width="1920" height="1080" viewBox="0 0 1920 1080"><defs><linearGradient id="bg" x2="0.8" y2="1"><stop stop-color="#192a35"/><stop offset="1" stop-color="#03070b"/></linearGradient><linearGradient id="metal"><stop stop-color="#121d25"/><stop offset=".25" stop-color="#86969f"/><stop offset=".4" stop-color="#c1c9cb"/><stop offset=".55" stop-color="#536570"/><stop offset="1" stop-color="#101a22"/></linearGradient><linearGradient id="armor" x1="0" y1="0" x2="1" y2="1"><stop stop-color="#d4dcdd"/><stop offset=".28" stop-color="#8c9ca4"/><stop offset=".65" stop-color="#344752"/><stop offset="1" stop-color="#101a22"/></linearGradient><linearGradient id="floor" x2="0" y2="1"><stop stop-color="#17252d"/><stop offset="1" stop-color="#03090d"/></linearGradient><radialGradient id="halo"><stop stop-color="#8ae6ff" stop-opacity=".5"/><stop offset="1" stop-color="#6ac9ff" stop-opacity="0"/></radialGradient><linearGradient id="beam" x2="0" y2="1"><stop stop-color="#bde8fa" stop-opacity=".18"/><stop offset="1" stop-color="#a1dcf4" stop-opacity="0"/></linearGradient><radialGradient id="mist"><stop stop-color="#9dbcc9" stop-opacity=".14"/><stop offset="1" stop-color="#8eafbe" stop-opacity="0"/></radialGradient></defs><path d="M0 810L1920 800V1080H0Z" fill="url(#floor)"/><g id="floor-lines" stroke="#76919f" stroke-opacity=".13"><path d="M960 795L-1200 1080"/><path d="M960 795L-1000 1080"/><path d="M960 795L-800 1080"/><path d="M960 795L-600 1080"/><path d="M960 795L-400 1080"/><path d="M960 795L-200 1080"/><path d="M960 795L0 1080"/><path d="M960 795L200 1080"/><path d="M960 795L400 1080"/><path d="M960 795L600 1080"/><path d="M960 795L800 1080"/><path d="M960 795L1000 1080"/><path d="M960 795L1200 1080"/><path d="M960 795L1400 1080"/><path d="M960 795L1600 1080"/><path d="M960 795L1800 1080"/><path d="M960 795L2000 1080"/><path d="M960 795L2200 1080"/><path d="M960 795L2400 1080"/><path d="M960 795L2600 1080"/><path d="M960 795L2800 1080"/><path d="M0 824H1920"/><path d="M0 859H1920"/><path d="M0 910H1920"/><path d="M0 989H1920"/><path d="M0 1070H1920"/></g></svg>
